<?xml version="1.0" encoding="UTF-8"?>
<svg id="Warstwa_1" xmlns="http://www.w3.org/2000/svg" version="1.1" viewBox="0 0 463.52 381">
  <!-- Generator: Adobe Illustrator 30.5.1, SVG Export Plug-In . SVG Version: 2.1.4 Build 3)  -->
  <defs>
    <style>
      .st0 {
        fill: #db9f33;
      }
    </style>
  </defs>
  <path class="st0" d="M119.95,223.18c-.06,2.77-2.32,4.97-5.07,4.97-.03,0-.07,0-.1,0-.49,0-1-.01-1.51-.02-3.41-.02-7.66-.05-11.48-2.04-2.97-1.42-5.13-4.24-5.75-7.66-.63-3.46.41-7.04,2.8-9.63,2.02-2.4,4.69-4.32,7.28-6.17,3.99-2.87,6.79-5.03,6.35-6.82-.66-2.73,1.01-5.47,3.74-6.13,2.73-.66,5.47,1.01,6.13,3.74,2.08,8.58-5.07,13.72-10.3,17.47-2.11,1.51-4.29,3.08-5.48,4.52-.08.09-.16.18-.24.27-.28.3-.34.67-.29.93.05.27.18.35.3.41,1.79.93,4.44.95,7,.97.56,0,1.11,0,1.65.02,2.8.06,5.03,2.37,4.97,5.18ZM448.5,181.16c2,11.22-.47,25.97-6.16,36.69-.05.1-.1.19-.16.28-4.7,7.66-14.33,7.68-17.49,7.69h-1.08c-.55.01-1.12.02-1.68.02-4.49,0-9.34-.27-13.19-2.96-.15-.11-.29-.22-.43-.34-7.37-6.43-3.5-14.41-1.19-19.18,1.71-3.52,2.77-5.95,2-7.49-1.2-2.55-2.77-2.89-8.99-3.3-4.08-.27-9.15-.6-14.59-2.69-4.12-1.51-7.6-3.65-9.79-5.18-1.36-.97-2.59-1.9-3.79-2.8-2.67-2.02-4.97-3.75-8.02-5.44-27.49-16.46-54.24-7.09-82.56,2.84-8.6,3.01-17.49,6.13-26.41,8.49-21.1,5.8-51.4,12.2-79.96,11.38-1.52,5.34-3.83,10.85-7.12,16.8-1.15,2.07-2.57,4.66-4.87,6.89-1.24,1.21-2.93,2.69-5.02,3.47-2.5.92-7.79,1.97-13.32,1.97-4.7,0-9.58-.76-13.07-2.99-3-1.92-4.79-4.81-5.05-8.14-.02-.23-.02-.45,0-.68.4-7.36,6.35-11.58,10.69-14.67,1.37-.97,2.66-1.89,3.65-2.77,2.09-1.87,5.3-1.69,7.17.39,1.87,2.09,1.69,5.3-.4,7.17-1.42,1.27-3.01,2.4-4.54,3.49-3.49,2.48-5.89,4.32-6.35,6.39,1.53,1.91,12.04,2.41,17.72.31.07-.03.47-.26,1.45-1.21,1.13-1.11,1.99-2.58,3.07-4.54,2.46-4.46,4.29-8.58,5.6-12.54-20.23-1.96-38.85-8.19-51.7-21.71-13.06-13.96-23.13-32.79-29.96-55.98-1.01-3.38-1.76-6.85-2.48-10.21-3.14-14.49-5.36-22.06-18.13-21.72-14.33.42-32.75-.38-47.85-10.4-2.46-1.68-4.74-3.66-6.83-5.92-2.72-2.95-4.59-5.6-5.88-8.35-2.69-5.75-1.84-9.95-.66-12.47,1.48-3.14,4.3-5.5,7.92-6.63,2.87-.89,5.68-1.18,8.39-1.47,1.38-.14,2.68-.28,3.9-.48,5.34-.9,10.89-2.91,16.5-5.99,5.91-3.23,11.49-7.5,17.08-13.05,1.54-1.53,3-3.16,4.55-4.87,3.04-3.39,6.19-6.89,10.14-9.8C82.75.4,101.46-2.39,118.54,2.12c14.27,3.76,25.17,12.1,30.67,23.47,3.75,7.91,5.37,16.16,6.93,24.14,1.71,8.75,3.33,17.02,7.56,24.47.03.06.07.12.1.18,10.6,20.58,34.87,25.37,57.21,27.33,23.48,2.83,50.43,2.57,76.05-.72,8.49-.82,16.91-2.26,25.06-3.65,18.69-3.19,38.02-6.48,58.17-2.63,7.65,1.11,14.74,3.91,21.6,6.63,3.49,1.38,6.79,2.69,10.09,3.75,3.44.72,8.58-.75,15.29-4.38,12.91-6.99,22.19-22.11,23.1-37.63,0-.09.01-.17.02-.26.44-4.04,2.16-6.24,5.11-6.56,1.01-.11,4.47-.11,6.03,4.53.04.1.07.21.1.31,5.8,21.89-2.13,47.3-19.73,63.22-2.08,1.88-5.29,1.72-7.17-.36-1.88-2.08-1.72-5.29.36-7.17,7.32-6.63,12.67-15.17,15.63-24.33-4.82,7.17-11.19,13.16-18.61,17.17-5.88,3.17-14.61,7.17-22.62,5.3-.13-.03-.26-.07-.39-.11-3.71-1.18-7.39-2.64-10.95-4.05-6.64-2.63-12.91-5.11-19.42-6.04-.08-.01-.16-.02-.25-.04-18.38-3.54-36.01-.53-54.67,2.65-8.33,1.42-16.94,2.89-25.63,3.73-26.27,3.38-54.12,3.64-78.24.72-24.9-2.19-52.25-7.81-65.13-32.69-5.01-8.87-6.86-18.31-8.64-27.45-1.51-7.7-2.93-14.97-6.12-21.7-4.18-8.63-12.74-15.05-24.11-18.04-14.09-3.71-29.96-1.44-40.45,5.8-2.98,2.2-5.65,5.17-8.48,8.32-1.57,1.75-3.19,3.56-4.94,5.29-6.27,6.23-12.6,11.06-19.36,14.75-6.08,3.33-12.17,5.6-18.14,6.79.27,1.77.28,4.08-.74,6.48-1.37,3.23-4.56,6.51-7.84,7.18,1.32,1.32,2.7,2.53,4.15,3.52,12.66,8.4,29.04,9.04,41.9,8.67,21.76-.6,25.42,16.23,28.34,29.72.69,3.17,1.4,6.46,2.3,9.48,6.39,21.67,15.68,39.13,27.61,51.9,4.68,4.92,10.32,8.72,16.64,11.61-2.64-3.11-4.8-6.75-6.19-11-2.73-7.49-1.91-15.19,2.23-20.44,4.3-5.34,10.19-7.85,16.6-7.13,10.17,1.16,18.73,9.71,22.42,17.21,2.45,4.48,4.07,9.67,4.82,15.44.57,4.37.6,8.95.11,13.66,26.69.45,55.38-5.71,75.41-11.21,8.58-2.27,17.28-5.32,25.69-8.26,29.28-10.26,59.56-20.87,90.97-2.06,3.54,1.94,6.36,4.08,9.09,6.14,1.13.85,2.28,1.72,3.52,2.61,2.35,1.64,5.02,3.06,7.49,3.96,4.09,1.56,7.96,1.82,11.7,2.07,6.4.42,13.65.9,17.46,9.01,3.01,6.03.11,12-2.01,16.35-2.48,5.12-2.45,5.98-1.5,6.89,1.78,1.04,5.64,1,8.77.99h1.12c4.77-.02,7.57-.89,8.8-2.75,4.46-8.53,6.59-20.97,5.08-29.78-.74-2.62-2.6-4.96-4.76-7.67-2.09-2.62-4.46-5.59-5.93-9.23-1.96-4.44-2.84-9-3.68-13.41-.44-2.31-.86-4.49-1.42-6.57-1.51-5.93-4.11-11.65-6.44-16.54-1.2-2.53-.13-5.56,2.41-6.77,2.53-1.2,5.56-.13,6.77,2.41,2.53,5.33,5.38,11.58,7.1,18.34.64,2.36,1.11,4.83,1.57,7.22.78,4.05,1.51,7.88,3.03,11.28.03.06.05.12.08.19.91,2.29,2.64,4.46,4.47,6.76,2.55,3.2,5.45,6.84,6.69,11.61.03.13.06.26.08.39ZM166.75,176.85c-.59-4.55-1.84-8.57-3.71-11.96-.04-.08-.08-.16-.12-.24-2.89-5.95-9.25-11.08-14.49-11.68-.34-.04-.68-.06-1.01-.06-2.51,0-4.65,1.13-6.5,3.43-2.26,2.87-1.78,7.47-.57,10.8,3.96,12.16,17.52,17.87,26.55,20.38.34-3.7.29-7.28-.15-10.68ZM97.34,59.9c-1.92,8.23-3.91,16.74-2.69,25.46,1.44,12.03,10.24,22.75,21.4,26.08.09.03.18.05.27.07,1.91.46,3.8.69,5.67.69,10.92,0,21.11-7.82,30.33-23.34,1.43-2.41.64-5.53-1.77-6.96-2.41-1.44-5.53-.64-6.96,1.77-8.34,14.02-16.45,19.92-24.77,18-7.11-2.19-13.15-9.7-14.11-17.62-.98-6.95.71-14.18,2.5-21.84,1.16-4.98,2.37-10.13,2.82-15.37.53-7.07-.93-13.69-2.44-19.23-.74-2.71-3.52-4.31-6.23-3.57-2.71.74-4.3,3.53-3.57,6.23,1.28,4.71,2.53,10.27,2.12,15.75-.38,4.46-1.45,9.03-2.59,13.88ZM396.45,198.34c-2.48-1.3-5.55-.36-6.86,2.12-.9,1.71-1.7,3.5-2.48,5.24-2.93,6.57-5.04,10.64-9.36,11.64-8.31,1.34-13.68.58-15.16-.69-.08-.07-.15-.13-.2-.28.78-2.04,3.12-4.01,5.59-6.09,4.44-3.75,10.53-8.88,9.17-17.52-.44-2.77-3.04-4.66-5.8-4.23-2.77.44-4.66,3.03-4.23,5.8.43,2.73-1.31,4.5-5.68,8.19-3.67,3.09-7.82,6.6-9.11,12.12-.08.35-.12.7-.13,1.06-.06,3.47,1.23,6.45,3.75,8.63,3.39,2.93,8.6,3.88,13.9,3.88,3.33,0,6.7-.37,9.68-.86.08-.01.17-.03.25-.05,9.75-2.1,13.55-10.61,16.61-17.45.74-1.66,1.44-3.23,2.19-4.65,1.31-2.48.36-5.55-2.12-6.86ZM173.58,341.34c-2.24-1.75-5.05-3.19-8.45-4.31-3.4-1.12-7.33-2.09-11.8-2.91-3.43-.67-6.38-1.44-8.84-2.29-2.46-.86-4.35-2.01-5.65-3.47-1.31-1.45-1.96-3.3-1.96-5.54,0-1.86.56-3.5,1.68-4.92,1.12-1.42,2.78-2.54,4.98-3.36,2.2-.82,4.9-1.23,8.11-1.23,1.94,0,4.03.32,6.27.95,2.24.63,4.36,1.42,6.38,2.35,2.01.93,3.62,1.92,4.81,2.96.9.67,1.9,1.01,3.02,1.01,1.71,0,3.21-.67,4.48-2.01,1.27-1.34,1.9-2.83,1.9-4.48,0-2.24-1.08-4.21-3.24-5.93-2.61-2.24-5.99-4.08-10.13-5.54-4.14-1.45-8.63-2.18-13.48-2.18-5.15,0-9.85.9-14.1,2.69-4.25,1.79-7.63,4.4-10.13,7.83-2.5,3.43-3.75,7.57-3.75,12.42,0,3.21.52,6.1,1.57,8.67,1.04,2.57,2.59,4.81,4.64,6.71,2.05,1.9,4.6,3.47,7.66,4.7,3.06,1.23,6.6,2.15,10.63,2.74,4.25.6,7.76,1.44,10.52,2.52,2.76,1.08,4.81,2.41,6.15,3.97,1.34,1.57,2.01,3.47,2.01,5.71,0,1.87-.71,3.52-2.13,4.98-1.42,1.45-3.28,2.61-5.59,3.47-2.31.86-4.85,1.29-7.61,1.29-4.1,0-7.55-.6-10.35-1.79-2.8-1.19-5.61-2.95-8.45-5.26-1.12-.89-2.39-1.34-3.8-1.34-1.87,0-3.41.65-4.64,1.96-1.23,1.31-1.85,2.82-1.85,4.53,0,1.05.26,2.09.78,3.13.52,1.05,1.27,1.98,2.24,2.8,3.8,3.28,7.79,5.58,11.97,6.88,4.18,1.3,8.88,1.96,14.1,1.96s9.79-.93,14.15-2.8c4.36-1.86,7.89-4.55,10.57-8.06,2.69-3.5,4.03-7.68,4.03-12.53,0-3.8-.56-7.03-1.68-9.68-1.12-2.65-2.8-4.85-5.03-6.6ZM254.58,371.16c.37.97.56,1.87.56,2.68,0,2.01-.65,3.62-1.96,4.81-1.31,1.19-2.74,1.79-4.31,1.79-1.34,0-2.56-.41-3.64-1.23-1.08-.82-1.92-1.94-2.52-3.36l-5.81-13.54h-33.36l-5.8,13.65c-.52,1.42-1.33,2.52-2.41,3.3-1.08.78-2.26,1.17-3.52,1.17-2.01,0-3.51-.56-4.48-1.68-.97-1.12-1.45-2.5-1.45-4.14,0-.67.11-1.38.34-2.13l27.86-66.91c.6-1.49,1.51-2.65,2.74-3.47,1.23-.82,2.55-1.16,3.97-1.01,1.34,0,2.59.39,3.75,1.17,1.16.78,1.99,1.88,2.52,3.3l27.52,65.57ZM231.39,349.45l-11.24-26.19-11.13,26.19h22.37ZM307.84,301.56h-36.36c-1.94,0-3.56.65-4.87,1.96-1.31,1.31-1.96,2.93-1.96,4.87v64.67c0,1.94.65,3.56,1.96,4.87,1.3,1.31,3,1.96,5.09,1.96,1.86,0,3.49-.65,4.87-1.96,1.38-1.3,2.07-2.93,2.07-4.87v-26.07h24.17c1.94,0,3.56-.63,4.87-1.9,1.3-1.27,1.96-2.72,1.96-4.36,0-1.94-.65-3.52-1.96-4.75-1.31-1.23-2.93-1.85-4.87-1.85h-24.17v-19.69h29.2c1.94,0,3.56-.63,4.87-1.9,1.3-1.27,1.96-2.72,1.96-4.36,0-1.94-.65-3.52-1.96-4.76-1.31-1.23-2.93-1.85-4.87-1.85ZM332.34,320.03c-1.94,0-3.54.65-4.81,1.96-1.27,1.31-1.9,2.93-1.9,4.87v46.21c0,1.94.63,3.56,1.9,4.87,1.27,1.31,2.87,1.96,4.81,1.96s3.54-.65,4.81-1.96c1.27-1.3,1.9-2.93,1.9-4.87v-46.21c0-1.94-.63-3.56-1.9-4.87-1.27-1.3-2.87-1.96-4.81-1.96ZM337.82,300.67c-1.04-.82-2.87-1.23-5.48-1.23-2.39,0-4.16.39-5.31,1.17-1.16.78-1.73,2.26-1.73,4.42v2.12c0,2.09.52,3.54,1.57,4.36,1.04.82,2.83,1.23,5.37,1.23s4.36-.39,5.48-1.17c1.12-.78,1.68-2.25,1.68-4.42v-2.12c0-2.09-.52-3.54-1.57-4.36Z"/>
</svg>