<?xml version="1.0" encoding="UTF-8"?>
<svg id="Warstwa_1" xmlns="http://www.w3.org/2000/svg" version="1.1" viewBox="0 0 512 512">
  <!-- Generator: Adobe Illustrator 30.5.1, SVG Export Plug-In . SVG Version: 2.1.4 Build 3)  -->
  <defs>
    <style>
      .st0 {
        fill: none;
      }

      .st1 {
        fill: #db9f33;
      }

      .st2 {
        fill: #121214;
      }
    </style>
  </defs>
  <rect class="st2" x="0" width="512" height="512" rx="110.76" ry="110.76"/>
  <path class="st1" d="M430.28,260.15c-1-3.84-3.33-6.76-5.38-9.34-1.47-1.85-2.86-3.59-3.6-5.44-.02-.05-.04-.1-.06-.15-1.22-2.74-1.81-5.81-2.43-9.08-.37-1.92-.75-3.91-1.26-5.81-1.38-5.43-3.67-10.46-5.71-14.75-.97-2.04-3.41-2.9-5.44-1.94-2.04.97-2.9,3.41-1.94,5.44,1.87,3.94,3.97,8.54,5.18,13.31.45,1.67.79,3.42,1.14,5.28.68,3.55,1.38,7.21,2.96,10.79,1.18,2.93,3.09,5.32,4.77,7.43,1.73,2.17,3.23,4.06,3.83,6.17,1.21,7.08-.5,17.09-4.09,23.95-.99,1.49-3.24,2.19-7.08,2.2h-.9c-2.52.01-5.62.05-7.05-.79-.76-.73-.79-1.42,1.21-5.54,1.7-3.5,4.03-8.3,1.61-13.15-3.07-6.52-8.9-6.91-14.04-7.25-3.01-.2-6.13-.4-9.41-1.66-1.98-.73-4.13-1.87-6.02-3.19-1-.71-1.93-1.41-2.83-2.1-2.2-1.66-4.47-3.38-7.31-4.94-25.27-15.14-49.62-6.6-73.18,1.65-6.77,2.37-13.77,4.82-20.67,6.65-16.11,4.42-39.19,9.38-60.66,9.02.39-3.79.37-7.47-.09-10.99-.6-4.64-1.91-8.81-3.88-12.42-2.97-6.04-9.85-12.92-18.03-13.85-5.16-.58-9.89,1.44-13.35,5.73-3.33,4.22-3.99,10.42-1.79,16.44,1.11,3.42,2.85,6.34,4.98,8.84-5.08-2.32-9.62-5.38-13.39-9.34-9.6-10.27-17.07-24.31-22.21-41.75-.72-2.43-1.29-5.07-1.85-7.62-2.35-10.85-5.29-24.39-22.79-23.91-10.35.3-23.52-.22-33.7-6.97-1.17-.8-2.28-1.77-3.34-2.83,2.64-.53,5.2-3.18,6.31-5.77.82-1.93.81-3.79.59-5.21,4.8-.96,9.7-2.79,14.59-5.46,5.43-2.97,10.53-6.85,15.57-11.87,1.4-1.4,2.71-2.85,3.97-4.26,2.27-2.53,4.42-4.92,6.82-6.69,8.43-5.82,21.2-7.65,32.53-4.67,9.14,2.41,16.03,7.57,19.39,14.51,2.57,5.41,3.71,11.26,4.92,17.45,1.44,7.35,2.92,14.94,6.95,22.08,10.36,20.02,32.36,24.53,52.39,26.3,19.41,2.35,41.8,2.13,62.94-.58,7-.68,13.92-1.86,20.62-3,15.01-2.56,29.19-4.98,43.97-2.13.07.01.13.02.2.03,5.23.74,10.28,2.74,15.62,4.86,2.87,1.13,5.83,2.31,8.81,3.26.1.03.21.06.31.09,6.44,1.51,13.46-1.71,18.19-4.26,5.97-3.23,11.09-8.05,14.97-13.81-2.38,7.37-6.68,14.24-12.57,19.57-1.67,1.51-1.8,4.1-.29,5.77,1.51,1.67,4.09,1.8,5.77.29,14.16-12.81,20.53-33.25,15.87-50.86-.02-.08-.05-.17-.08-.25-1.25-3.73-4.04-3.73-4.85-3.64-2.37.26-3.76,2.03-4.11,5.28,0,.07-.01.14-.02.21-.73,12.49-8.2,24.65-18.58,30.27-5.4,2.92-9.54,4.1-12.3,3.52-2.66-.86-5.31-1.91-8.12-3.02-5.52-2.19-11.22-4.44-17.38-5.33-16.21-3.1-31.76-.45-46.79,2.12-6.55,1.12-13.33,2.27-20.16,2.94-20.61,2.65-42.29,2.85-61.18.58-17.97-1.58-37.49-5.43-46.02-21.99-.02-.05-.05-.1-.08-.14-3.4-6-4.7-12.65-6.08-19.69-1.25-6.42-2.55-13.05-5.57-19.42-4.43-9.15-13.19-15.85-24.67-18.88-13.74-3.62-28.79-1.39-39.36,5.92-3.18,2.34-5.71,5.16-8.16,7.88-1.24,1.38-2.41,2.69-3.66,3.92-4.49,4.46-8.99,7.9-13.74,10.5-4.51,2.47-8.98,4.09-13.27,4.82-.99.17-2.03.28-3.14.39-2.19.23-4.45.46-6.75,1.18-2.92.91-5.18,2.8-6.37,5.33-.95,2.02-1.64,5.4.53,10.03,1.04,2.21,2.54,4.35,4.73,6.72,1.68,1.82,3.51,3.41,5.49,4.76,12.14,8.06,26.96,8.7,38.49,8.36,10.28-.27,12.06,5.81,14.58,17.47.58,2.7,1.19,5.5,2,8.22,5.5,18.66,13.6,33.8,24.1,45.03,10.34,10.87,25.32,15.89,41.59,17.47-1.05,3.18-2.53,6.5-4.5,10.09-.87,1.57-1.56,2.76-2.47,3.65-.79.77-1.11.95-1.17.97-4.56,1.69-13.02,1.29-14.25-.25.37-1.66,2.3-3.14,5.11-5.14,1.24-.88,2.51-1.79,3.65-2.81,1.68-1.5,1.82-4.09.32-5.77-1.5-1.68-4.09-1.83-5.77-.32-.8.71-1.84,1.45-2.94,2.23-3.49,2.48-8.27,5.88-8.6,11.8-.01.18,0,.36,0,.55.21,2.68,1.66,5.01,4.07,6.55,2.81,1.8,6.74,2.41,10.52,2.41,4.45,0,8.7-.84,10.71-1.59,1.68-.62,3.04-1.81,4.03-2.79,1.85-1.8,2.99-3.88,3.92-5.55,2.64-4.79,4.5-9.22,5.72-13.52,22.97.66,47.35-4.49,64.32-9.15,7.17-1.9,14.33-4.4,21.25-6.83,22.78-7.98,44.3-15.52,66.41-2.28,2.46,1.35,4.31,2.75,6.46,4.37.96.73,1.95,1.47,3.05,2.25,1.76,1.23,4.56,2.95,7.87,4.16,4.38,1.68,8.46,1.95,11.74,2.16,5,.33,6.27.61,7.23,2.66.62,1.24-.23,3.19-1.61,6.03-1.86,3.84-4.98,10.25.95,15.43.11.1.22.19.34.27,3.1,2.17,6.99,2.38,10.61,2.38.46,0,.91,0,1.35,0h.87c2.54-.01,10.29-.03,14.07-6.19.05-.07.09-.15.13-.22,4.57-8.63,6.57-20.49,4.95-29.51-.02-.1-.04-.21-.07-.31ZM182.93,240.5c1.49-1.85,3.21-2.76,5.23-2.76.27,0,.54.02.82.05,4.21.48,9.33,4.6,11.65,9.39.03.06.06.13.1.19,1.5,2.73,2.51,5.96,2.98,9.62.36,2.73.4,5.61.12,8.59-7.26-2.02-18.17-6.61-21.36-16.39-.98-2.68-1.36-6.39.46-8.69ZM390.19,279.8c-.6,1.14-1.16,2.4-1.76,3.74-2.46,5.5-5.51,12.34-13.36,14.04-.07.02-.13.03-.2.04-2.39.39-5.11.69-7.79.69-4.27,0-8.46-.76-11.18-3.12-2.02-1.75-3.07-4.15-3.01-6.94,0-.29.04-.57.11-.85,1.04-4.44,4.38-7.26,7.33-9.75,3.52-2.97,4.92-4.39,4.57-6.58-.35-2.23,1.17-4.32,3.4-4.67,2.23-.35,4.32,1.17,4.67,3.4,1.09,6.95-3.8,11.08-7.38,14.1-1.98,1.67-3.87,3.26-4.5,4.9.04.12.09.17.16.22,1.19,1.03,5.51,1.63,12.19.56,3.48-.8,5.17-4.08,7.53-9.36.62-1.4,1.27-2.84,1.99-4.22,1.05-2,3.52-2.76,5.52-1.71,2,1.05,2.76,3.52,1.71,5.52ZM155.1,288.23c-.23.24-.27.54-.23.75.04.21.14.28.24.33,1.44.75,3.57.76,5.63.78.45,0,.89,0,1.32.02,2.26.04,4.05,1.91,4,4.17-.04,2.23-1.86,4-4.08,4-.03,0-.06,0-.08,0-.4,0-.8,0-1.21-.01-2.75-.02-6.16-.04-9.23-1.64-2.39-1.14-4.12-3.41-4.63-6.16-.51-2.78.33-5.66,2.25-7.74,1.62-1.93,3.78-3.47,5.86-4.97,3.21-2.31,5.46-4.05,5.11-5.49-.53-2.19.81-4.4,3.01-4.93,2.2-.53,4.4.81,4.93,3.01,1.68,6.9-4.08,11.03-8.29,14.05-1.7,1.22-3.45,2.48-4.41,3.64-.06.07-.13.15-.19.22ZM149.96,151.76c.33-4.41-.67-8.88-1.7-12.67-.59-2.18.69-4.42,2.87-5.01,2.18-.59,4.42.69,5.01,2.87,1.21,4.46,2.39,9.78,1.96,15.47-.36,4.21-1.33,8.36-2.27,12.36-1.44,6.16-2.8,11.98-2.01,17.57.77,6.38,5.63,12.41,11.35,14.18,6.69,1.54,13.22-3.2,19.93-14.48,1.15-1.94,3.66-2.58,5.6-1.42,1.94,1.15,2.58,3.66,1.42,5.6-7.42,12.48-15.61,18.77-24.4,18.77-1.5,0-3.02-.18-4.56-.55-.07-.02-.14-.04-.22-.06-8.98-2.68-16.06-11.31-17.22-20.98-.99-7.02.61-13.86,2.16-20.48.91-3.9,1.77-7.58,2.08-11.16Z"/>
  <g>
    <rect class="st0" y="353.71" width="512" height="71.53"/>
    <path class="st1" d="M191.47,421.21c-4.2,0-7.98-.53-11.34-1.58-3.36-1.05-6.57-2.89-9.63-5.54-.78-.66-1.38-1.41-1.8-2.25-.42-.84-.63-1.68-.63-2.52,0-1.38.5-2.59,1.48-3.64.99-1.05,2.23-1.58,3.73-1.58,1.14,0,2.16.36,3.06,1.08,2.28,1.86,4.54,3.27,6.79,4.23,2.25.96,5.02,1.44,8.33,1.44,2.22,0,4.26-.34,6.12-1.04,1.86-.69,3.36-1.62,4.5-2.79,1.14-1.17,1.71-2.5,1.71-4,0-1.8-.54-3.33-1.62-4.59s-2.73-2.32-4.95-3.2c-2.22-.87-5.04-1.54-8.46-2.02-3.24-.48-6.09-1.21-8.55-2.21-2.46-.99-4.52-2.25-6.17-3.78-1.65-1.53-2.9-3.33-3.73-5.4-.84-2.07-1.26-4.39-1.26-6.98,0-3.9,1-7.23,3.02-9.99,2.01-2.76,4.73-4.86,8.15-6.3,3.42-1.44,7.2-2.16,11.34-2.16,3.9,0,7.52.58,10.85,1.76,3.33,1.17,6.04,2.65,8.15,4.45,1.74,1.38,2.61,2.97,2.61,4.77,0,1.32-.51,2.52-1.53,3.6-1.02,1.08-2.22,1.62-3.6,1.62-.9,0-1.71-.27-2.43-.81-.96-.84-2.25-1.63-3.87-2.38-1.62-.75-3.33-1.38-5.13-1.89-1.8-.51-3.48-.76-5.04-.76-2.58,0-4.76.33-6.52.99-1.77.66-3.1,1.56-4,2.7-.9,1.14-1.35,2.46-1.35,3.96,0,1.8.52,3.29,1.58,4.46,1.05,1.17,2.56,2.1,4.54,2.79,1.98.69,4.35,1.31,7.11,1.85,3.6.66,6.76,1.44,9.5,2.34,2.73.9,5,2.06,6.79,3.46,1.8,1.41,3.15,3.18,4.05,5.31.9,2.13,1.35,4.73,1.35,7.79,0,3.9-1.08,7.26-3.24,10.08-2.16,2.82-5,4.98-8.51,6.48-3.51,1.5-7.31,2.25-11.38,2.25Z"/>
    <path class="st1" d="M248.08,371.44l-19.44,45.72c-.42,1.14-1.07,2.03-1.94,2.66-.87.63-1.82.95-2.83.95-1.62,0-2.82-.45-3.6-1.35-.78-.9-1.17-2.01-1.17-3.33,0-.54.09-1.11.27-1.71l22.41-53.82c.48-1.2,1.21-2.13,2.21-2.79.99-.66,2.05-.93,3.19-.81,1.08,0,2.08.32,3.02.95.93.63,1.6,1.52,2.02,2.66l22.14,52.74c.3.78.45,1.5.45,2.16,0,1.62-.53,2.91-1.57,3.87-1.05.96-2.21,1.44-3.47,1.44-1.08,0-2.06-.33-2.92-.99-.87-.66-1.54-1.56-2.02-2.7l-19.35-45.09,2.61-.54ZM231.43,406.18l4.95-10.35h24.3l1.71,10.35h-30.96Z"/>
    <path class="st1" d="M288.13,420.31c-1.68,0-3.05-.52-4.09-1.58-1.05-1.05-1.58-2.35-1.58-3.92v-52.02c0-1.56.52-2.87,1.58-3.92,1.05-1.05,2.35-1.58,3.92-1.58h29.25c1.56,0,2.86.5,3.92,1.49,1.05.99,1.58,2.26,1.58,3.82,0,1.32-.53,2.49-1.58,3.51-1.05,1.02-2.36,1.53-3.92,1.53h-24.3l.81-1.08v18.09l-.63-1.17h20.07c1.56,0,2.86.49,3.92,1.48,1.05.99,1.58,2.27,1.58,3.83,0,1.32-.53,2.49-1.58,3.51-1.05,1.02-2.36,1.53-3.92,1.53h-20.25l.81-.81v21.78c0,1.56-.56,2.87-1.67,3.92-1.11,1.05-2.42,1.58-3.92,1.58Z"/>
    <path class="st1" d="M336.82,366.31c-2.04,0-3.48-.33-4.32-.99-.84-.66-1.26-1.83-1.26-3.51v-1.71c0-1.74.46-2.92,1.39-3.55.93-.63,2.35-.95,4.28-.95,2.1,0,3.57.33,4.41.99.84.66,1.26,1.83,1.26,3.51v1.71c0,1.74-.45,2.92-1.35,3.55-.9.63-2.37.95-4.41.95ZM342.31,414.82c0,1.56-.51,2.87-1.53,3.92-1.02,1.05-2.31,1.58-3.87,1.58s-2.85-.52-3.87-1.58c-1.02-1.05-1.53-2.35-1.53-3.92v-37.17c0-1.56.51-2.86,1.53-3.92,1.02-1.05,2.31-1.58,3.87-1.58s2.85.53,3.87,1.58c1.02,1.05,1.53,2.36,1.53,3.92v37.17Z"/>
  </g>
</svg>