<?xml version="1.0" encoding="UTF-8"?>
<svg id="Warstwa_1" xmlns="http://www.w3.org/2000/svg" version="1.1" viewBox="0 0 313.32 154.32">
  <!-- Generator: Adobe Illustrator 30.5.1, SVG Export Plug-In . SVG Version: 2.1.4 Build 3)  -->
  <defs>
    <style>
      .st0 {
        fill: #dca032;
      }
    </style>
  </defs>
  <path class="st0" d="M303.11,122.2c-.84-3.23-2.8-5.68-4.52-7.85-1.24-1.55-2.41-3.02-3.02-4.57-.02-.04-.03-.09-.05-.13-1.02-2.3-1.52-4.89-2.05-7.63-.31-1.61-.63-3.28-1.06-4.88-1.16-4.57-3.08-8.79-4.8-12.4-.81-1.71-2.86-2.44-4.57-1.63-1.71.81-2.44,2.86-1.63,4.57,1.57,3.31,3.34,7.17,4.35,11.18.38,1.4.66,2.88.96,4.44.57,2.98,1.16,6.06,2.49,9.06.99,2.46,2.59,4.47,4.01,6.24,1.46,1.83,2.72,3.41,3.22,5.18,1.02,5.95-.42,14.36-3.44,20.13-.83,1.25-2.72,1.84-5.95,1.85h-.76c-2.11.01-4.72.04-5.93-.67-.64-.61-.66-1.2,1.01-4.66,1.43-2.94,3.39-6.98,1.36-11.05-2.58-5.48-7.48-5.81-11.8-6.09-2.53-.17-5.15-.34-7.91-1.4-1.67-.61-3.47-1.57-5.06-2.68-.84-.6-1.62-1.19-2.38-1.76-1.84-1.39-3.75-2.84-6.14-4.15-21.24-12.72-41.7-5.55-61.49,1.39-5.69,1.99-11.57,4.05-17.37,5.59-13.54,3.72-32.93,7.88-50.97,7.58.33-3.18.31-6.28-.07-9.23-.51-3.9-1.61-7.41-3.26-10.43-2.49-5.07-8.28-10.85-15.15-11.63-4.33-.49-8.31,1.21-11.22,4.82-2.8,3.55-3.35,8.76-1.51,13.82.93,2.87,2.4,5.33,4.18,7.43-4.27-1.95-8.08-4.52-11.25-7.85-8.07-8.63-14.35-20.43-18.66-35.08-.61-2.04-1.09-4.26-1.55-6.41-1.97-9.12-4.44-20.5-19.15-20.09-8.69.25-19.77-.18-28.32-5.86-.98-.67-1.91-1.49-2.81-2.38,2.22-.45,4.37-2.67,5.3-4.85.69-1.62.68-3.18.5-4.38,4.03-.81,8.15-2.34,12.26-4.59,4.57-2.5,8.85-5.76,13.09-9.97,1.18-1.17,2.28-2.4,3.34-3.58,1.91-2.13,3.72-4.14,5.73-5.62,7.09-4.89,17.82-6.43,27.34-3.92,7.68,2.03,13.47,6.36,16.29,12.2,2.16,4.55,3.12,9.46,4.14,14.67,1.21,6.17,2.46,12.56,5.84,18.55,8.71,16.82,27.2,20.62,44.03,22.1,16.31,1.97,35.13,1.79,52.89-.49,5.88-.57,11.7-1.56,17.33-2.52,12.61-2.15,24.53-4.18,36.95-1.79.06.01.11.02.17.03,4.4.62,8.64,2.3,13.13,4.08,2.41.95,4.9,1.94,7.4,2.74.09.03.17.05.26.07,5.41,1.27,11.31-1.44,15.29-3.58,5.02-2.72,9.32-6.77,12.58-11.61-2,6.19-5.61,11.97-10.56,16.45-1.41,1.27-1.51,3.44-.24,4.85,1.27,1.41,3.44,1.51,4.85.24,11.9-10.76,17.26-27.94,13.33-42.74-.02-.07-.04-.14-.06-.21-1.05-3.14-3.39-3.14-4.08-3.06-2,.21-3.16,1.71-3.46,4.44,0,.06-.01.12-.01.17-.61,10.49-6.89,20.72-15.61,25.44-4.54,2.45-8.02,3.45-10.34,2.96-2.23-.72-4.46-1.6-6.82-2.54-4.64-1.84-9.43-3.73-14.6-4.48-13.62-2.6-26.69-.37-39.32,1.78-5.51.94-11.2,1.91-16.94,2.47-17.32,2.22-35.54,2.4-51.41.48-15.1-1.33-31.5-4.57-38.67-18.48-.02-.04-.04-.08-.07-.12-2.86-5.04-3.95-10.63-5.11-16.54-1.05-5.39-2.15-10.97-4.68-16.32-3.72-7.69-11.09-13.32-20.74-15.87-11.55-3.05-24.19-1.17-33.07,4.97-2.67,1.96-4.8,4.33-6.86,6.62-1.04,1.16-2.03,2.26-3.07,3.29-3.78,3.75-7.55,6.64-11.54,8.82-3.79,2.08-7.55,3.44-11.15,4.05-.83.14-1.71.23-2.64.33-1.84.19-3.74.39-5.67.99-2.45.76-4.35,2.36-5.36,4.48-.8,1.7-1.38,4.54.44,8.43.87,1.86,2.13,3.65,3.97,5.65,1.41,1.53,2.95,2.87,4.62,4,10.2,6.77,22.65,7.31,32.34,7.03,8.63-.23,10.13,4.88,12.25,14.68.49,2.27,1,4.62,1.68,6.9,4.62,15.68,11.43,28.4,20.25,37.84,8.69,9.14,21.27,13.35,34.95,14.68-.88,2.67-2.12,5.46-3.79,8.47-.73,1.32-1.31,2.32-2.07,3.07-.66.64-.93.8-.98.82-3.83,1.42-10.94,1.08-11.98-.21.31-1.4,1.93-2.64,4.29-4.32,1.04-.74,2.11-1.5,3.07-2.36,1.41-1.26,1.53-3.43.27-4.85-1.26-1.41-3.43-1.53-4.85-.27-.67.6-1.54,1.22-2.47,1.88-2.93,2.08-6.95,4.94-7.22,9.91,0,.15,0,.31,0,.46.18,2.25,1.39,4.21,3.42,5.5,2.36,1.51,5.66,2.02,8.84,2.02,3.74,0,7.31-.71,9-1.33,1.41-.52,2.55-1.52,3.39-2.34,1.55-1.51,2.52-3.26,3.29-4.66,2.22-4.02,3.78-7.75,4.81-11.36,19.3.55,39.79-3.77,54.05-7.69,6.03-1.59,12.04-3.7,17.85-5.74,19.14-6.71,37.22-13.05,55.81-1.92,2.07,1.14,3.62,2.31,5.42,3.67.81.61,1.64,1.24,2.56,1.89,1.48,1.03,3.83,2.48,6.62,3.5,3.68,1.41,7.11,1.64,9.87,1.82,4.2.28,5.27.51,6.08,2.23.52,1.05-.2,2.68-1.35,5.07-1.56,3.22-4.18,8.62.8,12.96.09.08.19.16.29.23,2.6,1.82,5.88,2,8.91,2,.38,0,.76,0,1.14,0h.73c2.14-.01,8.65-.03,11.82-5.2.04-.06.07-.12.11-.19,3.84-7.25,5.52-17.22,4.16-24.8-.02-.09-.03-.17-.06-.26ZM95.26,105.69c1.25-1.56,2.69-2.32,4.39-2.32.22,0,.45.01.69.04,3.54.4,7.84,3.87,9.79,7.89.03.05.05.11.08.16,1.26,2.29,2.11,5.01,2.51,8.09.3,2.3.33,4.72.1,7.22-6.1-1.7-15.27-5.55-17.95-13.77-.82-2.26-1.14-5.37.38-7.3ZM269.42,138.71c-.5.95-.98,2.02-1.48,3.14-2.06,4.62-4.63,10.37-11.23,11.79-.06.01-.11.02-.17.03-2.01.33-4.29.58-6.54.58-3.58,0-7.11-.64-9.4-2.62-1.7-1.47-2.58-3.49-2.53-5.83,0-.24.03-.48.09-.72.87-3.73,3.68-6.1,6.16-8.19,2.96-2.49,4.13-3.69,3.84-5.53-.29-1.87.99-3.63,2.86-3.92,1.87-.29,3.63.98,3.92,2.86.92,5.84-3.19,9.31-6.2,11.85-1.67,1.41-3.25,2.74-3.78,4.12.03.1.08.14.13.19,1,.86,4.63,1.37,10.24.47,2.93-.67,4.35-3.43,6.33-7.87.52-1.17,1.07-2.39,1.67-3.54.88-1.68,2.96-2.32,4.64-1.44,1.68.88,2.32,2.96,1.44,4.64ZM71.87,145.79c-.19.2-.23.46-.2.63.03.18.12.24.2.28,1.21.63,3,.64,4.73.65.38,0,.75,0,1.11.01,1.9.04,3.4,1.6,3.36,3.5-.04,1.87-1.57,3.36-3.43,3.36-.02,0-.05,0-.07,0-.33,0-.68,0-1.02-.01-2.31-.01-5.18-.03-7.76-1.38-2.01-.96-3.46-2.87-3.89-5.18-.43-2.34.28-4.76,1.89-6.51,1.37-1.62,3.17-2.92,4.92-4.17,2.7-1.94,4.59-3.4,4.29-4.61-.45-1.84.68-3.7,2.53-4.15,1.85-.44,3.7.68,4.15,2.53,1.41,5.8-3.43,9.27-6.96,11.81-1.43,1.02-2.9,2.08-3.71,3.06-.05.06-.11.12-.16.18ZM67.55,31.11c.28-3.71-.57-7.47-1.43-10.65-.5-1.83.58-3.72,2.41-4.21,1.83-.5,3.72.58,4.21,2.41,1.02,3.75,2.01,8.22,1.65,13-.3,3.54-1.12,7.02-1.91,10.39-1.21,5.18-2.35,10.07-1.69,14.76.64,5.36,4.73,10.43,9.53,11.91,5.62,1.3,11.11-2.69,16.74-12.17.97-1.63,3.07-2.17,4.7-1.19,1.63.97,2.16,3.07,1.19,4.7-6.24,10.49-13.12,15.78-20.51,15.78-1.26,0-2.54-.15-3.83-.46-.06-.01-.12-.03-.18-.05-7.54-2.25-13.49-9.5-14.47-17.63-.83-5.9.51-11.65,1.82-17.21.77-3.27,1.49-6.37,1.75-9.38Z"/>
</svg>
